Coordinates
version=1
nRows=12
nColumns=24
inDegrees=yes

Units are S.I. units (second, meters, Newtons, ...)
Angles are in degrees.

endheader
time	pelvis_tilt	pelvis_list	pelvis_rotation	pelvis_tx	pelvis_ty	pelvis_tz	hip_flexion_r	hip_adduction_r	hip_rotation_r	knee_angle_r	ankle_angle_r	subtalar_angle_r	mtp_angle_r	hip_flexion_l	hip_adduction_l	hip_rotation_l	knee_angle_l	ankle_angle_l	subtalar_angle_l	mtp_angle_l	lumbar_extension	lumbar_bending	lumbar_rotation
      4.19000000	     -9.13236150	      2.36304128	     -2.93077659	     -1.99208162	     -0.00948761	      0.42033769	     31.16635261	     -4.07204569	     -5.52858972	    -53.28601956	    -15.04258958	    -18.08904791	      9.27480223	      6.62450854	      5.90301940	     12.22399577	     -9.81957649	      1.88069571	     -0.51348166	      5.15140855	      8.86869645	     -1.50426753	      1.45014809
      4.19500000	     -9.13833670	      2.24638994	     -2.60199242	     -1.98670179	     -0.00963900	      0.42010731	     31.52407781	     -4.07743465	     -5.99482263	    -51.99191294	    -14.52944183	    -17.53541978	      9.37922322	      6.08854405	      5.80523712	     12.52439766	     -9.51975486	      2.00988787	     -0.49503874	      5.09149856	      8.77969164	     -1.50503339	      0.96478246
      4.20000000	     -9.16745012	      2.12719244	     -2.28515448	     -1.98133618	     -0.00984686	      0.41996107	     31.87476572	     -4.06404685	     -6.43844849	    -50.61983493	    -14.03109187	    -16.96698053	      9.48925566	      5.58382093	      5.68848068	     12.80596952	     -9.22648710	      2.15807169	     -0.44255596	      5.06084922	      8.71110862	     -1.50867700	      0.52560288
      4.20500000	     -9.21541862	      2.00939012	     -1.98719273	     -1.97598035	     -0.01011739	      0.41987937	     32.21410120	     -4.03537180	     -6.85340735	    -49.16961978	    -13.53760723	    -16.38514135	      9.61715593	      5.10479478	      5.55953024	     13.07348826	     -8.94116926	      2.33953277	     -0.35327546	      5.06842025	      8.66273080	     -1.51432021	      0.13595117
      4.21000000	     -9.23219308	      1.90490200	     -1.66607625	     -1.97065125	     -0.01035279	      0.41975344	     32.48065198	     -4.04423631	     -7.29266849	    -47.64157399	    -13.02874044	    -15.70840852	      9.74621554	      4.61405463	      5.45023299	     13.26047623	     -8.68102919	      2.48500738	     -0.23588354	      5.07705754	      8.57301557	     -1.53591401	     -0.31102084
      4.21500000	     -9.27282348	      1.79841069	     -1.36707819	     -1.96532014	     -0.01064249	      0.41969850	     32.73668734	     -4.03087006	     -7.69920518	    -46.03380370	    -12.53078936	    -14.99714679	      9.88468646	      4.15267312	      5.32525204	     13.42148820	     -8.42563873	      2.65948793	     -0.07338739	      5.12814255	      8.51048442	     -1.55444492	     -0.70366731
      4.22000000	     -9.31638747	      1.69779081	     -1.07081411	     -1.95999505	     -0.01095251	      0.41967665	     32.95656257	     -4.01994679	     -8.09369869	    -44.34928839	    -12.02997011	    -14.21836512	     10.03640104	      3.70591609	      5.20142583	     13.53431671	     -8.18553557	      2.84275283	      0.13031939	      5.20761983	      8.44957072	     -1.58135597	     -1.08336050
      4.22500000	     -9.36699834	      1.60305960	     -0.77961716	     -1.95467715	     -0.01128801	      0.41968138	     33.14470781	     -4.01098158	     -8.47382231	    -42.59040389	    -11.53089148	    -13.36830227	     10.20277136	      3.27781830	      5.08025998	     13.60538727	     -7.95992876	      3.03099348	      0.36934548	      5.30864599	      8.39617095	     -1.61372020	     -1.44678098
      4.23000000	     -9.41975253	      1.51543617	     -0.49166614	     -1.94934610	     -0.01163852	      0.41970969	     33.29374564	     -4.00586674	     -8.83866565	    -40.76200924	    -11.03716091	    -12.43988608	     10.37163855	      2.86153576	      4.96560118	     13.63495245	     -7.75164977	      3.22247710	      0.63053616	      5.41939834	      8.34646629	     -1.65337798	     -1.79230541
      4.23500000	     -9.47352726	      1.43508671	     -0.20591288	     -1.94401253	     -0.01200938	      0.41979041	     33.40516435	     -4.00475677	     -9.19361448	    -38.87401094	    -10.54871167	    -11.43384704	     10.54148253	      2.45629675	      4.85539415	     13.62552624	     -7.55790928	      3.41094902	      0.90674686	      5.53200940	      8.29842597	     -1.70795968	     -2.12919777
      4.24000000	     -9.52104882	      1.36273151	      0.07738539	     -1.93865798	     -0.01238500	      0.41988090	     33.46922883	     -4.01070324	     -9.53543986	    -36.93123658	    -10.08103983	    -10.35163211	     10.69031697	      2.05565676	      4.75582758	     13.58450751	     -7.38761039	      3.59723159	      1.19073394	      5.63920501	      8.24805215	     -1.76711543	     -2.45354697
      4.24500000	     -9.59094601	      1.29657664	      0.34401873	     -1.93323679	     -0.01280571	      0.42005127	     33.51981441	     -4.01248243	     -9.87294819	    -34.94288189	     -9.65670161	     -9.23235626	     10.84222757	      1.67058504	      4.65468587	     13.54234560	     -7.20974761	      3.77322855	      1.46810715	      5.73949432	      8.23247365	     -1.83870201	     -2.71607836
